<svg xmlns="http://www.w3.org/2000/svg" version="1.1" xmlns:xlink="http://www.w3.org/1999/xlink" xmlns:svgjs="http://svgjs.dev/svgjs" width="861" height="994"><svg width="861" height="994" xmlns="http://www.w3.org/2000/svg" xmlns:xlink="http://www.w3.org/1999/xlink" xml:space="preserve" overflow="hidden"><g transform="translate(-1769 -912)"><g><path d="M1774.69 1162.13 2198.51 913.208 2628.98 1161.74 2625.31 1653.24 2201.49 1902.16 1771.02 1653.63Z" fill="#2B3E50" fill-rule="evenodd" fill-opacity="1"></path><path d="M0 310C-8.18625e-14 138.792 143.94-3.94671e-14 321.5-3.94671e-14 499.06-7.89342e-14 643 138.792 643 310 643 481.208 499.06 620 321.5 620 143.94 620-1.63725e-13 481.208 0 310Z" stroke="#000000" stroke-width="27.5" stroke-linecap="butt" stroke-linejoin="miter" stroke-miterlimit="8" stroke-opacity="1" fill="#000000" fill-rule="evenodd" fill-opacity="1" transform="matrix(1 0 0 -1 1913 1747)"></path><path d="M2464.01 1255.42C2461.14 1250.95 2462.44 1245.01 2466.91 1242.14L2586.46 1165.45C2590.92 1162.59 2596.87 1163.89 2599.73 1168.35L2620.49 1200.71C2623.36 1205.18 2622.06 1211.12 2617.59 1213.99L2498.04 1290.68C2493.57 1293.54 2487.63 1292.24 2484.76 1287.78Z" fill="#CBD4D7" fill-rule="evenodd" fill-opacity="1"></path><path d="M0 309.5C-8.18625e-14 138.568 143.94-3.94035e-14 321.5-3.94035e-14 499.06-7.8807e-14 643 138.568 643 309.5 643 480.432 499.06 619 321.5 619 143.94 619-1.63725e-13 480.432 0 309.5Z" stroke="#CCD4D8" stroke-width="27.5" stroke-linecap="butt" stroke-linejoin="miter" stroke-miterlimit="8" stroke-opacity="1" fill="#344F6A" fill-rule="evenodd" fill-opacity="0.878431" transform="matrix(1 0 0 -1 1891 1743)"></path><path d="M2091.79 1823.21C2090.24 1821.29 2090.54 1818.47 2092.47 1816.93L2146.54 1773.41C2148.47 1771.86 2151.28 1772.17 2152.83 1774.09L2164.04 1788.03C2165.59 1789.95 2165.29 1792.77 2163.36 1794.31L2109.29 1837.83C2107.36 1839.38 2104.55 1839.07 2103 1837.15Z" fill="#CBD4D7" fill-rule="evenodd" fill-opacity="1"></path><path d="M183.184 96.9574C271.707 96.9574 345.564 70.722 362.646 35.8457L363.55 32.0946 351.839 26.1636C318.188 19.0514 219.29 34.721 165.897 30.3604 112.505 25.9998 58.2729 0.17471 31.4841-0.000179374L3.38999 6.37099 0 20.4208C0 62.6907 82.0142 96.9574 183.184 96.9574Z" fill="#8152F6" fill-rule="evenodd" fill-opacity="1" transform="matrix(-0.769066 -0.639169 -0.639169 0.769066 2239.01 1672.25)"></path><path d="M127.257 148.254C188.753 148.254 240.062 111.75 251.928 63.2241L252.556 58.005 244.42 49.7528C207.686 19.013 156.939 0 100.885 0 72.8577 0 46.1571 4.75318 21.8718 13.3491L2.35501 22.2138 0 41.7623C0 100.576 56.9748 148.254 127.257 148.254Z" fill="#DA2257" fill-rule="evenodd" fill-opacity="0.556863" transform="matrix(0.998679 0.0513811 0.0513811 -0.998679 2107.26 1722.68)"></path><path d="M69.0308 38.9849C102.129 38.9849 129.203 17.9043 135.589 9.13447L135.928 8.19125 131.549 6.69987C111.778 1.14444 88.329 12.4963 58.1603 12.4963 43.0761 12.4963 24.8421-1.43265 11.7716 0.120835L1.26748 1.7229 0 5.2558C0 15.8848 31.2047 38.9849 69.0308 38.9849Z" fill="#FFFFFF" fill-rule="evenodd" fill-opacity="0.760784" transform="matrix(0.11376 0.993508 0.993508 -0.11376 2268.53 1626.43)"></path><text fill="#C7CFD3" fill-opacity="1" font-family="Bodoni 72 Oldstyle,Bodoni 72 Oldstyle_MSFontService,sans-serif" font-style="normal" font-variant="normal" font-weight="700" font-stretch="normal" font-size="147" text-anchor="start" direction="ltr" writing-mode="lr-tb" unicode-bidi="normal" text-decoration="none" transform="matrix(1 0 0 1 1937.67 1528)" svgjs:data="{&quot;leading&quot;:&quot;1.3&quot;}">Detective</text><text fill="#C7CFD3" fill-opacity="1" font-family="Bodoni 72 Oldstyle,Bodoni 72 Oldstyle_MSFontService,sans-serif" font-style="normal" font-variant="normal" font-weight="400" font-stretch="normal" font-size="110" text-anchor="start" direction="ltr" writing-mode="lr-tb" unicode-bidi="normal" text-decoration="none" transform="matrix(1 0 0 1 2019.49 1415)" svgjs:data="{&quot;leading&quot;:&quot;1.3&quot;}">Damage</text><path d="M0 110C-2.86455e-14 49.2487 50.368-1.40045e-14 112.5-1.40045e-14 174.632-2.80089e-14 225 49.2487 225 110 225 170.751 174.632 220 112.5 220 50.368 220-5.7291e-14 170.751 0 110Z" stroke="#CCD4D8" stroke-width="27.5" stroke-linecap="butt" stroke-linejoin="miter" stroke-miterlimit="8" stroke-opacity="1" fill="none" fill-rule="evenodd" transform="matrix(1 0 0 -1 2123 1801)"></path><path d="M2237 1622C2237 1615.93 2242.6 1611 2249.5 1611 2256.4 1611 2262 1615.93 2262 1622 2262 1628.08 2256.4 1633 2249.5 1633 2242.6 1633 2237 1628.08 2237 1622Z" fill="#FFFFFF" fill-rule="evenodd" fill-opacity="0.760784"></path><path d="M2092.21 1796.27C2095.05 1796.57 2097.77 1797.95 2099.71 1800.34 2103.92 1805.6 2100.18 1816.16 2104.4 1821.41 2109.55 1827.72 2122.65 1828.72 2127.8 1835.03 2131.68 1839.82 2130.94 1846.84 2126.15 1850.72L2119.18 1856.37 2057.08 1820.51 2084.02 1798.69C2086.41 1796.76 2089.37 1795.97 2092.21 1796.27Z" fill="#C7CFD3" fill-rule="evenodd" fill-opacity="1"></path><path d="M2566.4 1125.61 2628.98 1161.74 2628.23 1262.02 2619.56 1267.59C2608.07 1274.95 2592.79 1271.61 2585.43 1260.13 2574.47 1244.36 2573.78 1229.84 2562.83 1214.07 2556 1202.12 2538.91 1188.92 2532.08 1176.97 2524.71 1165.49 2528.05 1150.21 2539.53 1142.84L2566.4 1125.61Z" fill="#CBD4D7" fill-rule="evenodd" fill-opacity="1"></path></g></g></svg><style>@media (prefers-color-scheme: light) { :root { filter: none; } }
@media (prefers-color-scheme: dark) { :root { filter: none; } }
</style></svg>