<svg xmlns="http://www.w3.org/2000/svg" version="1.1" xmlns:xlink="http://www.w3.org/1999/xlink" xmlns:svgjs="http://svgjs.dev/svgjs" width="907" height="1045"><svg width="907" height="1045" xmlns="http://www.w3.org/2000/svg" xmlns:xlink="http://www.w3.org/1999/xlink" xml:space="preserve" overflow="hidden"><defs><filter id="SvgjsFilter1005" x="-10%" y="-10%" width="120%" height="120%" filterUnits="userSpaceOnUse" primitiveUnits="userSpaceOnUse"><feComponentTransfer color-interpolation-filters="sRGB"><feFuncR type="discrete" tableValues="0.000000 0.000000"></feFuncR><feFuncG type="discrete" tableValues="0.000000 0.000000"></feFuncG><feFuncB type="discrete" tableValues="0.000000 0.000000"></feFuncB><feFuncA type="linear" slope="0.141176" intercept="0.000000"></feFuncA></feComponentTransfer><feGaussianBlur stdDeviation="6.111111 6.111111"></feGaussianBlur></filter><clipPath id="SvgjsClipPath1004"><rect x="1.39392" y="1.79565" width="903.197" height="1035.51"></rect></clipPath><radialGradient cx="0.125" cy="0.125" r="3608244" fx="0" fy="0" gradientUnits="userSpaceOnUse" spreadMethod="pad" id="SvgjsRadialGradient1003" gradientTransform="matrix(0.000312542 0.000180446 -0.000180446 0.000312542 1988.43 791.922)"><stop offset="0" stop-color="#4C5C7F" stop-opacity="1"></stop><stop offset="0.19" stop-color="#4C5C7F" stop-opacity="1"></stop><stop offset="0.99" stop-color="#2B3E58" stop-opacity="1"></stop><stop offset="1" stop-color="#2B3E58" stop-opacity="1"></stop></radialGradient></defs><g transform="translate(-1755 -902)"><g><g clip-path="url(#clip1)" filter="url(#fx0)" transform="translate(1756 906)"><g><g><path d="M23.4321 271.544 451.485 20.129 886.258 271.145 882.552 767.557 454.5 1018.97 19.7273 767.955Z" fill="#FF0000" fill-rule="evenodd" fill-opacity="1"></path></g></g></g><path d="M1774.69 1162.13 2198.51 913.208 2628.98 1161.74 2625.31 1653.24 2201.49 1902.16 1771.02 1653.63Z" fill="url(#fill2)" fill-rule="evenodd"></path><path d="M2100.57 1823.21C2099.02 1821.29 2099.33 1818.47 2101.25 1816.93L2155.33 1773.41C2157.25 1771.86 2160.07 1772.17 2161.62 1774.09L2172.83 1788.03C2174.38 1789.95 2174.07 1792.77 2172.15 1794.31L2118.07 1837.83C2116.15 1839.38 2113.34 1839.07 2111.79 1837.15Z" fill="#000000" fill-rule="evenodd" fill-opacity="1"></path><path d="M2109.8 1804.53C2112.64 1804.82 2115.37 1806.21 2117.3 1808.6 2121.52 1813.86 2117.78 1824.42 2121.99 1829.67 2127.14 1835.98 2140.24 1836.98 2145.39 1843.29 2149.27 1848.07 2148.53 1855.1 2143.74 1858.98L2136.77 1864.62 2074.67 1828.77 2101.61 1806.95C2104.01 1805.01 2106.96 1804.23 2109.8 1804.53Z" fill="#000000" fill-rule="evenodd" fill-opacity="1"></path><path d="M201.794 170 211.138 153.167C216.845 139.977 220 125.475 220 110.252 220 49.3613 169.515 0 107.238 0 60.53 0 20.455 27.7657 3.33702 67.3367L0 77.8484 1.05178 75.9532C21.316 46.6263 55.633 27.3444 94.556 27.3444 156.833 27.3444 207.318 76.7057 207.318 137.596 207.318 145.208 206.53 152.639 205.027 159.816L201.794 170Z" fill="#000000" fill-rule="evenodd" fill-opacity="1" transform="matrix(1 0 0 -1 2141 1817)"></path><path d="M2479.84 1274.42C2476.98 1269.95 2478.28 1264 2482.74 1261.14L2588.32 1193.42C2592.78 1190.55 2598.73 1191.85 2601.59 1196.32L2622.35 1228.67C2625.21 1233.14 2623.92 1239.08 2619.45 1241.95L2513.88 1309.67C2509.41 1312.54 2503.46 1311.24 2500.6 1306.77Z" fill="#000000" fill-rule="evenodd" fill-opacity="1"></path><path d="M2564.42 1152.83 2627 1188.96 2626.25 1289.24 2617.58 1294.8C2606.1 1302.17 2590.82 1298.83 2583.45 1287.35 2572.5 1271.58 2571.81 1257.05 2560.85 1241.28 2554.03 1229.33 2536.93 1216.14 2530.11 1204.19 2522.74 1192.7 2526.08 1177.42 2537.56 1170.06L2564.42 1152.83Z" fill="#000000" fill-rule="evenodd" fill-opacity="1"></path><path d="M0 310C-8.18625e-14 138.792 143.94-3.94671e-14 321.5-3.94671e-14 499.06-7.89342e-14 643 138.792 643 310 643 481.208 499.06 620 321.5 620 143.94 620-1.63725e-13 481.208 0 310Z" stroke="#000000" stroke-width="27.5" stroke-linecap="butt" stroke-linejoin="miter" stroke-miterlimit="8" stroke-opacity="1" fill="#000000" fill-rule="evenodd" fill-opacity="1" transform="matrix(1 0 0 -1 1900 1735)"></path><path d="M0 309.5C-8.18625e-14 138.568 143.94-3.94035e-14 321.5-3.94035e-14 499.059-7.8807e-14 643 138.568 643 309.5 643 480.432 499.059 619 321.5 619 143.94 619-1.63725e-13 480.432 0 309.5Z" stroke="#FFFFFF" stroke-width="27.5" stroke-linecap="butt" stroke-linejoin="miter" stroke-miterlimit="8" stroke-opacity="1" fill="#43668D" fill-rule="evenodd" fill-opacity="0.788235" transform="matrix(1 0 0 -1 1874 1718)"></path><path d="M2461.34 1254.8C2458.1 1249.76 2459.57 1243.05 2464.61 1239.81L2582.08 1164.46C2587.12 1161.23 2593.83 1162.69 2597.07 1167.73L2620.49 1204.25C2623.73 1209.3 2622.26 1216.01 2617.22 1219.24L2499.75 1294.59C2494.71 1297.83 2488 1296.36 2484.76 1291.32Z" fill="#FFFFFF" fill-rule="evenodd" fill-opacity="1"></path><path d="M2071.06 1816.77C2069.4 1814.71 2069.73 1811.68 2071.8 1810.01L2144.89 1751.19C2146.96 1749.53 2149.99 1749.86 2151.65 1751.93L2163.71 1766.91C2165.38 1768.98 2165.05 1772.01 2162.98 1773.68L2089.89 1832.49C2087.82 1834.16 2084.79 1833.83 2083.13 1831.76Z" fill="#FFFFFF" fill-rule="evenodd" fill-opacity="1"></path><path d="M183.184 96.9574C271.707 96.9574 345.564 70.722 362.646 35.8457L363.55 32.0946 351.839 26.1636C318.188 19.0514 219.29 34.721 165.897 30.3604 112.505 25.9998 58.2729 0.17471 31.4841-0.000179374L3.38999 6.37099 0 20.4208C0 62.6907 82.0142 96.9574 183.184 96.9574Z" fill="#C8D3F6" fill-rule="evenodd" fill-opacity="0.768627" transform="matrix(-0.782725 -0.622368 -0.622368 0.782725 2235.31 1647.66)"></path><g><g><g><text fill="#FFFFFF" fill-opacity="1" font-family="Bodoni 72 Oldstyle,Bodoni 72 Oldstyle_MSFontService,sans-serif" font-style="normal" font-variant="normal" font-weight="700" font-stretch="normal" font-size="147" text-anchor="start" direction="ltr" writing-mode="lr-tb" unicode-bidi="normal" text-decoration="none" transform="matrix(0.959349 0 0 0.958974 1916.69 1476)" svgjs:data="{&quot;leading&quot;:&quot;1.3&quot;}">Detective</text><text fill="#FFFFFF" fill-opacity="1" font-family="Bodoni 72 Oldstyle,Bodoni 72 Oldstyle_MSFontService,sans-serif" font-style="normal" font-variant="normal" font-weight="400" font-stretch="normal" font-size="110" text-anchor="start" direction="ltr" writing-mode="lr-tb" unicode-bidi="normal" text-decoration="none" transform="matrix(0.959349 0 0 0.958974 2016.15 1361)" svgjs:data="{&quot;leading&quot;:&quot;1.3&quot;}">Damage</text></g></g></g><path d="M2077.06 1785.87C2079.9 1786.17 2082.63 1787.55 2084.57 1789.95 2088.78 1795.2 2085.04 1805.76 2089.25 1811.02 2094.4 1817.32 2107.51 1818.33 2112.66 1824.63 2116.53 1829.42 2115.8 1836.45 2111.01 1840.32L2104.03 1845.97 2041.93 1810.12 2068.88 1788.3C2071.27 1786.36 2074.22 1785.57 2077.06 1785.87Z" fill="#FFFFFF" fill-rule="evenodd" fill-opacity="1"></path><path d="M2566.4 1125.61 2628.98 1161.74 2628.23 1262.02 2619.56 1267.59C2608.07 1274.95 2592.79 1271.61 2585.43 1260.13 2574.47 1244.36 2573.78 1229.84 2562.83 1214.07 2556 1202.12 2538.91 1188.92 2532.08 1176.97 2524.71 1165.49 2528.05 1150.21 2539.53 1142.84L2566.4 1125.61Z" fill="#FFFFFF" fill-rule="evenodd" fill-opacity="1"></path><path d="M126.976 153C188.338 153 239.533 116.462 251.373 67.8896L252 62.6655 243.882 46.349C207.229 15.5799 139.457 7.54563 102.001 1.92007 64.5455-3.70549 43.3787 3.99178 19.1468 12.5959L2.34982 26.8402 1.62464 38.4911 0 46.4074C0 105.277 56.8494 153 126.976 153Z" fill="#DA2257" fill-rule="evenodd" fill-opacity="0.556863" transform="matrix(1 0 0 -1 2107 1706)"></path><path d="M69.0308 39.0047C102.129 39.0047 129.203 17.9242 135.589 9.15432L135.928 8.21109C134.468 7.71395 129.593 7.60796 128.133 7.11082 120.146 6.98601 100.32 12.2531 88.6578 13.154 76.9957 14.0549 70.9746 14.6851 58.1603 12.5162 45.346 10.3473 24.8421-1.41281 11.7716 0.140681L1.26748 1.74275 0 5.27565C0 15.9047 31.2047 39.0047 69.0308 39.0047Z" fill="#FFFFFF" fill-rule="evenodd" fill-opacity="0.760784" transform="matrix(0.11376 0.993508 0.993508 -0.11376 2266.96 1599.12)"></path><path d="M2230 1595C2230 1588.92 2235.82 1584 2243 1584 2250.18 1584 2256 1588.92 2256 1595 2256 1601.08 2250.18 1606 2243 1606 2235.82 1606 2230 1601.08 2230 1595Z" fill="#FFFFFF" fill-rule="evenodd" fill-opacity="0.760784"></path><path d="M0 110.5C-2.86455e-14 49.4725 50.368-1.40681e-14 112.5-1.40681e-14 174.632-2.81363e-14 225 49.4725 225 110.5 225 171.527 174.632 221 112.5 221 50.368 221-5.7291e-14 171.527 0 110.5Z" stroke="#FFFFFF" stroke-width="27.5" stroke-linecap="butt" stroke-linejoin="miter" stroke-miterlimit="8" stroke-opacity="1" fill="none" fill-rule="evenodd" transform="matrix(1 0 0 -1 2120 1779)"></path></g></g></svg><style>@media (prefers-color-scheme: light) { :root { filter: none; } }
@media (prefers-color-scheme: dark) { :root { filter: none; } }
</style></svg>